<svg id="bd0f305b-a964-4489-8eb6-98ed32fa812d" data-name="Layer 1" xmlns="http://www.w3.org/2000/svg" width="350" height="400" viewBox="0 0 350 400"><defs><style>.a40afcb3-b054-4eaf-95a6-03ae6368fa57{fill:#f37021;}.a8aaa1a0-3cd9-419d-af28-e404e7daac03{fill:#aa462a;}.f2679798-868f-4964-b304-167f7d26a8f2{fill:#811517;}.a650a3b5-0a26-4deb-bdfc-1a46afc932e5{fill:#fecf8d;}.f27fd900-e914-4bc8-98a1-2c23ba164f05{fill:#f05079;}.e3fef539-6b5f-4db3-b015-1cc459657afa{fill:#c11940;}.ad0add7b-7411-4d6e-9d6c-40107aa6b78c{fill:#790002;}.b31e549b-b8e8-4b13-a70b-d5c92c64540d{fill:#aa4629;}.bbc767c9-e65c-4156-859d-eaf4fd22a85a{fill:#dc661e;}.f81b8e18-4d69-4d7d-9df8-104eee4e93fa{fill:#560000;}.b1f04e94-f6df-4bf1-8e0b-4dc82868f096{fill:#00b1e0;}.b8bf3667-34e2-4227-9f73-09b523e85d63{fill:none;}.ee75175e-62b9-47b6-9c35-806f1dce33c0{fill:#fff;}</style></defs><title>pers_artboard</title><path class="a40afcb3-b054-4eaf-95a6-03ae6368fa57" d="M117.73889,300.5324a65.56894,65.56894,0,0,1-12.00211,19.01614c-4.42718,4.68051-9.47207,4.98809-12.29191,7.80793-1.92932,1.9293-4.12131,14.31612-5.205,22.1978-1.61757,11.76144-.90245,15.05492-1.15743,17.06308-.57872,4.55513,2.89185,15.90651,6.0735,18.22052,6.3633,4.628,26.969,3.9044,29.78881-1.73529,1.043-2.08607,2.60294-4.98895,1.73616-8.67644-.67956-2.72578-5.27961-9.54408-5.85746-11.06245s.3618-19.30508,3.83238-24.51094c3.47057-5.63968,16.99107-14.533,21.76311-19.30507,10.84554-11.27937,12.36392-8.45953,19.73889-22.34183Z"/><path class="a40afcb3-b054-4eaf-95a6-03ae6368fa57" d="M305.58967,105.66717a66.13337,66.13337,0,0,0-4.20174-16.22511c-5.56516-15.87139-24.272-35.09168-34.41431-41.46688-7.59188-4.772-23.20947-12.79774-42.86533-13.76871-20.044-.99016-39.9235,1.98014-57.7661,11.087.61854.785,1.2337,1.57261,1.82763,2.37622-4.33989,2.06325-8.58154,7.19415-11.90045,10.68163A105.62579,105.62579,0,0,0,144.73075,72.789a93.26036,93.26036,0,0,0-13.70608,32.39053c-2.70714,13.01162-1.01844,25.74542-.87615,38.877.07462,6.86105-.52527,13.867-3.20447,20.25574-1.76583,4.20938-4.12981,8.20028-9.0967,8.22648,7.419,11.71493,17.83752,19.74827,30.26834,25.68616a94.8721,94.8721,0,0,0,20.20076,7.18184c3.33407.74218,12.30967-.05258,13.91533,3.74588,2.68935,6.36329,1.72766,13.851-3.56974,18.52471-4.17979,3.68835-9.87118,5.16777-15.25327,6.00409-14.93206,2.32156-30.16589,2.014-44.99548,5.16266-17.70869,3.76028-34.80908,15.50566-41.65367,32.80517-6.70723,16.95124-8.79929,25.95817-21.9249,39.65574A42.96184,42.96184,0,0,1,43.457,319.31724c-2.91216,1.48193-6.81066,2.54957-8.80181,5.27614-2.81132,3.8519-3.71465,10.205-5.06184,14.68981-1.50909,5.027-3.06727,10.0389-4.58478,15.06256-3.069,10.16011-5.96759,21.09971-2.54786,31.64869,2.08521,6.43107,13.54427,7.99942,19.09667,7.99942,6.2794,0,14.97024-1.55734,17.34185-8.35272,1.11762-3.20456.18889-6.20738-.63381-9.34331a15.87337,15.87337,0,0,1-.0754-7.55457c2.41309-13.86625,7.7478-27.91462,16.64957-38.9448,7.1971-8.918,15.18376-10.88884,23.66621-15.8896,2.57584-1.51838,7.05809-4.02473,9.40006-6.58021,1.437-1.5667,3.68748-3.83151,4.55512-4.772a105.5003,105.5003,0,0,1,10.7133.40329c4.0663.25422,13.002.97019,17.55714,1.1871-.52364,4.57379-.766,10.60912-1.24136,14.75585-1.07351,9.36873-2.73592,18.66033-3.72809,28.03912a150.45706,150.45706,0,0,0-.25083,26.28353c.04069.677-.81765,11.09717,4.789,19.50759.96344,1.44549,3.73833,3.62059,9.46192,5.13974,1.61416.42879,14.93128,3.31553,22.07746-1.05149,4.2052-2.56988,5.6448-5.61175,5.72445-6.65813,1.05063,2.45292,3.72393,2.97324,6.42429,3.73746,6.19127,1.75221,8.61122,2.00816,17.63844-.233,16.47083-4.08912,9.345-17.2885,6.77508-21.61066-1.521-2.55886-1.28454-31.53937,5.94727-60.513,4.73725-16.61234,12.4283-32.12911,16.43178-48.96938,2.51487-10.58118,3.75274-21.38265,6.77847-31.84773,2.82661-9.7754,5.99221-19.70758,11.05829-28.58227,5.11181-8.95608,13.58488-14.32124,21.07255-21.0709a173.58218,173.58218,0,0,0,18.80679-19.205C301.45821,145.9096,308.24266,126.31647,305.58967,105.66717Z"/><path class="a8aaa1a0-3cd9-419d-af28-e404e7daac03" d="M300.64566,89.756c-.52623-4.395-2.79356-8.03672-5.09151-11.7505-.69307-1.121-12.44184-16.38606-14.17548-18.16542a84.419,84.419,0,0,0-11.08527-9.57879,71.58316,71.58316,0,0,0-26.14289-11.63147c-35.60472-8.18161-76.5052,6.94246-96.25252,38.15222-8.479,13.3985-13.06211,30.45013-9.145,46.14016C143.28777,141.086,159.6137,151.046,177.7478,151.046c11.7251,0,22.18-3.86032,30.65648-12.255,4.76354-4.71738,7.03095-10.036,6.376-9.2653,4.0027.46219,8.00792.93965,12.03352,1.15657,4.0552.21777,8.6662.86686,12.39438-1.18364,6.06084-2.9139,13.25959-7.136,16.34372-13.37352.41013,1.17436,4.37553,1.01974,5.65834,1.01974a11.69742,11.69742,0,0,0,6.72-1.7294c3.91541-2.727,7.29115-12.50238,6.68276-12.63713,1.31075.49144,4.80172,1.99159,5.91,2.20806a33.03141,33.03141,0,0,0,6.32521.67026C296.0973,105.65658,301.74375,98.93824,300.64566,89.756Z"/><path class="f2679798-868f-4964-b304-167f7d26a8f2" d="M296.48617,85.92741c-2.89862-14.153-14.78716-24.3991-26.336-31.88383-8.81283-5.71083-18.60853-10.01391-29.05166-11.53992-10.38631-1.51708-21.192-.39738-31.38511,1.86457-19.06187,4.23054-37.09014,13.043-49.70568,28.30392-10.40244,12.58379-15.98105,28.78556-12.77319,45.06446,3.50788,17.80284,17.20884,29.27153,35.531,29.27153a37.63343,37.63343,0,0,0,21.96225-6.94454,37.16479,37.16479,0,0,0,8.25867-8.22352c1.27266-1.74119,1.80652-3.40958,3.896-4.50221a18.79024,18.79024,0,0,0-2.10221,2.18777c4.0027.46219,8.00792.93965,12.03352,1.15657,4.0552.21777,8.6662.86686,12.39438-1.18364,6.06084-2.9139,13.25959-7.136,16.34372-13.37352.41013,1.17436,4.37553,1.01974,5.65834,1.01974a11.69742,11.69742,0,0,0,6.72-1.7294c3.91541-2.727,5.66345-8.38324,7.22252-12.63886-.594-.19227-1.20151-.37319-1.8099-.50792,2.22169-.11184,4.17727,1.16462,6.437,1.27943a24.524,24.524,0,0,0,8.96623-1.09133C295.68213,100.12491,297.83432,92.5097,296.48617,85.92741Z"/><path class="f2679798-868f-4964-b304-167f7d26a8f2" d="M118.96494,79.57643c-1.26-10.07578-2.15384-20.23545-1.45313-30.39131.56171-8.14092,3.557-21.18942,8.68661-27.89-5.63969,2.1691-9.54408,3.68748-15.915,16.7877-4.23141,8.70107-6.481,18.21375-7.94343,27.74386a213.70365,213.70365,0,0,0-1.71336,43.8,168.77172,168.77172,0,0,0,3.95188,29.907c1.25572,5.29566,6.65309,20.58449,7.73765,21.886,4.506,0,7.24446-7.79984,8.09605-11.04041,1.9666-7.48681,2.802-15.28371,3.5222-22.97269.41517-4.42628.65923-11.44118.96258-15.87641A324.62907,324.62907,0,0,1,118.96494,79.57643Z"/><path class="a8aaa1a0-3cd9-419d-af28-e404e7daac03" d="M129.17077,122.77684c-.80324-1.70267-4.23228-11.91526-4.27382-11.02984-.522,11.11843-1.60316,29.09314-4.66022,39.86546-1.22008,4.29883-3.08421,10.04862-8.49171,9.29542,1.83526,3.93658,5.12623,10.27271,6.86152,12.22491,3.47057-.86764,7.64435-7.66137,8.53067-10.12444,2.1344-5.93286,2.69618-12.47749,2.75457-18.73659C129.92909,140.24789,129.01826,122.59254,129.17077,122.77684Z"/><path class="a650a3b5-0a26-4deb-bdfc-1a46afc932e5" d="M168.49605,47.75827c-6.16931-8.2197-15.3456-16.08064-23.92373-21.67876-4.09335-2.67156-10.00758-6.58021-15.1423-5.874-4.14924.57073-6.68528,5.078-8.02735,8.618-3.33331,8.7946-4.17727,18.50093-4.20692,27.83956-.03471,10.53242,1.27524,21.01155,2.84949,31.40845a182.82442,182.82442,0,0,0,8.973,34.3041s.2-4.99657.29481-6.54844c1.11848-18.39084,9.48308-36.39063,21.03871-50.51942C153.50627,61.45,163.94092,51.01193,168.49605,47.75827Z"/><path class="f2679798-868f-4964-b304-167f7d26a8f2" d="M189.15682,6.26817c.25422-.783,1.46415-3.19355,2.5487-5.36266a49.79715,49.79715,0,0,0-7.19877,6.21373,45.68383,45.68383,0,0,0-5.97607,9.83941c-3.85267,8.193-6.29467,17.76971-7.86552,26.67831,7.80879-3.68748,13.66539-5.20586,18.22052-6.72424C187.28939,28.11134,186.35309,14.9073,189.15682,6.26817Z"/><path class="a650a3b5-0a26-4deb-bdfc-1a46afc932e5" d="M239.27175,21.80184A128.8083,128.8083,0,0,0,211.16816,4.31293c-7.06141-3.14477-19.30846-7.65071-22.22825,2.79026-2.67332,9.56393-1.62093,20.55994.04156,30.21248,22.81625-5.84688,49.70054-3.90613,71.051,6.5382C260.6832,42.11859,243.44728,25.16222,239.27175,21.80184Z"/><path class="a8aaa1a0-3cd9-419d-af28-e404e7daac03" d="M181.348,317.54126a5.36981,5.36981,0,0,0-1.40992-4.55513c-6.06-8.07994-16.38866,3.87724-20.14556,8.61709a110.40111,110.40111,0,0,0-13.88915,23.68311,101.33565,101.33565,0,0,0-8.21546,27.93917c-.38471,2.924-1.62258,7.89435-1.12525,10.62951,1.16761,6.42516,6.09043,10.85821,6.07438,11.09716,1.35395-18.76106,5.6651-39.94129,15.62262-56.1087,1.74042-2.825,13.65949-19.02291,17.913-12.11317a13.94244,13.94244,0,0,1,1.8132,5.45244C178.30873,330.60337,180.3177,322.9098,181.348,317.54126Z"/><path class="a8aaa1a0-3cd9-419d-af28-e404e7daac03" d="M214.60151,310.68652c-.53724-5.58033-7.4377-3.98153-10.57952-2.23262-10.16263,5.65747-15.29726,16.79958-19.18387,27.21044A129.91156,129.91156,0,0,0,176.842,373.905a30.73917,30.73917,0,0,0-.1737,4.64241,17.873,17.873,0,0,1,.81,8.7239c-.26263,1.72592-1.24888,2.51565.03306,3.72055a14.06153,14.06153,0,0,0,6.94792,3.35023c-3.39934-15.16259.02464-31.02755,4.67124-45.5742,1.848-5.78536,13.12736-37.38573,22.718-26.31312C212.21376,320.67545,214.77261,312.4684,214.60151,310.68652Z"/><path class="f2679798-868f-4964-b304-167f7d26a8f2" d="M174.36876,372.23075c-.79649-7.569-.11782-15.34385.83962-22.868.77359-6.08539,3.00118-12.84008,2.76061-18.7798-.13729-3.38832-2.75124-6.89872-6.54464-5.12447a22.25134,22.25134,0,0,0-8.44176,6.182c-4.76441,5.333-7.769,11.91656-11.00311,18.218-6.29719,12.86976-10.02875,44.16845-9.81019,44.276a27.32974,27.32974,0,0,0,17.05467,5.60672c6.94956,0,15.3456-1.81581,17.9892-9.22809,1.093-3.06642.66852-7.16483-.09154-10.29138C176.40564,377.27818,174.689,375.28364,174.36876,372.23075Z"/><path class="f2679798-868f-4964-b304-167f7d26a8f2" d="M208.00265,368.88477c-.921-8.3299-.20338-16.71316.76344-25.00324.86-7.36733,1.54293-14.94993,3.25193-22.17827.12624-.53213-4.26109-3.24014-7.44612-1.16759a24.83051,24.83051,0,0,0-7.12162,7.89946c-3.84765,6.25311-6.42942,13.24-8.58325,20.23111a149.46421,149.46421,0,0,0-5.92274,28.63146,62.94012,62.94012,0,0,0,.95244,16.92157,41.81275,41.81275,0,0,0,9.3204.89394c6.30057,0,15.14481-1.72089,18.08916-8.11386C214.43623,380.20223,208.70336,375.21839,208.00265,368.88477Z"/><path class="f2679798-868f-4964-b304-167f7d26a8f2" d="M79.89893,246.54275c-12.2021-5.3262-20.6684-15.5447-26.08015-27.52313a37.92137,37.92137,0,0,1-3.7561-16.85807c.04406-1.24124.233-3.72557.43382-4.95164-.59314-1.0252-4.11369,6.87426-4.844,9.54408-6.16758,22.54434,3.20028,49.08539,24.22876,60.19365q.95072.502,1.90308,1.00491C68.2832,260.203,73.02728,250.92843,79.89893,246.54275Z"/><path class="a8aaa1a0-3cd9-419d-af28-e404e7daac03" d="M79.12874,246.23178c-4.98895,2.81984-11.43695,15.30151-8.67643,20.82345.43382.86764,1.82342,1.326,6.19383,2.78089a69.294,69.294,0,0,1,18.44419-20.95733C90.60809,248.99567,82.38241,247.75016,79.12874,246.23178Z"/><path class="f27fd900-e914-4bc8-98a1-2c23ba164f05" d="M266.39577,116.4466s-7.51987,1.01254-10.55662.28935c-2.02508,2.31358-3.79768,4.50091-10.06944,8.75775a36.71935,36.71935,0,0,1-12.34441,5.41392c3.46971,0,19.03142,7.00128,21.98,6.94115,3.54259-.07246,8.09772-2.314,9.54409-4.62759S264.66048,119.62825,266.39577,116.4466Z"/><path class="e3fef539-6b5f-4db3-b015-1cc459657afa" d="M266.39577,116.4466s-7.51987,1.01254-10.55662.28935c-2.02508,2.31358-3.79768,4.50091-10.06944,8.75775a36.71935,36.71935,0,0,1-12.34441,5.41392,14.79781,14.79781,0,0,1,3.58242.80491c9.5059-2.42367,19.011-4.18438,28.517-1.34763C265.77549,126.09749,265.06376,118.88857,266.39577,116.4466Z"/><path class="a40afcb3-b054-4eaf-95a6-03ae6368fa57" d="M203.83726,87.43988C197.946,75.09626,183.01718,66.96,173.679,73.41312c-8.60781,5.94978-7.0733,19.96257-2.225,29.88833,5.016,9.80125,18.08753,17.21813,26.97325,11.78052C207.54176,109.505,209.48458,99.2742,203.83726,87.43988Z"/><path class="a40afcb3-b054-4eaf-95a6-03ae6368fa57" d="M271.66349,62.96192c-5.61088-9.91943-17.02664-16.4225-24.9346-11.58818-6.37684,5.52612-5.56767,16.12343.95492,26.3284,5.1499,8.05746,15.35149,13.063,22.47484,8.48452C277.46673,81.49045,277.50994,72.73653,271.66349,62.96192Z"/><path class="a8aaa1a0-3cd9-419d-af28-e404e7daac03" d="M124.41227,111.747c-.5474,5.66425-2.40891,52.537-12.3792,48.17584-.85324-.37326-1.59464.8876-.73541,1.25826,13.36206,5.76636,13.61194-43.12164,14.08394-49.4341.04659-.62782-.91-.61343-.96933,0Z"/><path class="ad0add7b-7411-4d6e-9d6c-40107aa6b78c" d="M119.79781,176.43644c-1.54373-1.89373-7.95195-10.42014-13.12565-26.5728-5.6481-16.05826-7.68-37.224-7.68593-53.63808-.09319-16.39621,1.931-37.68654,8.42482-53.48972,3.07319-7.90286,7.1809-14.36653,11.23781-17.98365a18.079,18.079,0,0,1,7.45887-4.34542c1.77424-.49786,1.83784.50115.29569.99388a17.03483,17.03483,0,0,0-6.94878,4.22257c-3.80774,3.50658-7.72238,9.85036-10.63029,17.663-6.16164,15.61463-7.93,36.6694-7.82831,52.931-.00165,16.30259,1.77086,37.25826,7.11485,53.16687a114.05492,114.05492,0,0,0,4.63818,12.51472A56.89917,56.89917,0,0,0,120.93831,175.79C122.00336,177.08509,121.05943,177.69513,119.79781,176.43644Z"/><path class="ad0add7b-7411-4d6e-9d6c-40107aa6b78c" d="M171.08881,43.537a89.84726,89.84726,0,0,1,6.02943-21.52164c3.66972-8.23967,8.02909-18.39977,16.39545-20.676.83034-.22618.71937-1.17479-.12711-1.00324A12.79192,12.79192,0,0,0,188.49,2.59422c-4.73562,3.39387-7.952,9.30305-10.38294,14.25972a98.18961,98.18961,0,0,0-8.88734,27.28931c-.08306.55112,1.59039-.57872,1.86914-.60623Z"/><path class="a8aaa1a0-3cd9-419d-af28-e404e7daac03" d="M79.60489,246.00221c-7.35458,2.974-14.278,16.54024-7.20552,22.79421a.41724.41724,0,0,0,.58973-.58973c-5.81416-7.07243.08226-17.42065,6.86662-21.60971.3016-.18637.10256-.738-.25083-.59477Z"/><path class="ad0add7b-7411-4d6e-9d6c-40107aa6b78c" d="M49.96184,196.31859c-2.84362,12.32149,2.79355,24.18635,9.60848,34.28207,7.719,11.43606,20.92763,20.12353,35.23022,18.93225.88968-.07375.899-1.46753,0-1.39638-14.48982,1.143-26.9478-7.73678-34.7015-19.19072-6.61578-9.77366-10.8667-20.55735-9.18314-32.36372.0873-.61264-.80751-.90027-.95406-.2635Z"/><path class="ad0add7b-7411-4d6e-9d6c-40107aa6b78c" d="M76.44953,270.27836a44.34164,44.34164,0,0,1-13.98735-7.25966,50.41508,50.41508,0,0,1-16.56994-23.4459c-2.99866-8.35021-3.579-19.85837-1.77849-28.695a42.81311,42.81311,0,0,1,5.77356-14.68c.52787-.79945,1.309-.19956.87519.55581a42.49607,42.49607,0,0,0-5.1558,14.39109c-1.51759,8.65613-.70157,19.77282,2.19028,27.78585,2.5114,8.12393,8.70863,17.4799,15.6116,22.90268a44.08358,44.08358,0,0,0,13.35616,7.45722C77.58241,269.70051,77.33409,270.53258,76.44953,270.27836Z"/><path class="a8aaa1a0-3cd9-419d-af28-e404e7daac03" d="M296.7633,80.58428c2.56736,5.76463,4.54836,13.09943,1.01254,18.79879-4.15272,6.69415-13.60865,5.89175-19.98886,4.22214a.42083.42083,0,0,0-.22368.8109c6.58862,1.71664,16.0777,2.84735,20.68705-3.58536,4.262-5.9477,2.64441-13.65524-.12971-19.86982-.21006-.4707-.899-.06317-.69134.40328Z"/><path class="a8aaa1a0-3cd9-419d-af28-e404e7daac03" d="M213.85248,129.26257c-9.95587,15.73706-28.57466,20.63664-45.72589,14.35256-19.24486-7.05134-24.40075-31.71854-19.06778-49.42645,6.54542-21.73222,26.52665-38.2132,47.39671-45.31617,12.025-4.09293,24.85245-6.6124,37.57818-6.24469,14.03136.405,26.60881,5.73035,38.03733,13.5853,7.91213,5.438,15.76248,12.00134,20.21,20.68914,3.68324,7.19537,6.609,16.20143-.02464,22.72567-3.40446,3.34859-12.546,4.284-16.81563,3.152-.72951-.19313-.41092.63972.31773.83294,5.43718,1.44169,15.06091.33726,18.66363-4.62124,5.86761-8.07654,1.92426-17.97141-2.80119-25.64078-4.34837-7.0581-11.06923-12.4677-17.70028-17.26012-9.75336-7.04787-20.65227-12.39863-32.68831-13.9865-21.93082-2.89273-46.78413,3.23674-65.11564,15.55407-15.371,10.32738-28.20519,27.20367-30.10826,46.01089-1.77513,17.53508,6.72344,36.56008,24.42788,41.91847,16.748,5.06947,35.20823-.338,44.09567-15.92768a.3938.3938,0,0,0-.67953-.39738Z"/><path class="a8aaa1a0-3cd9-419d-af28-e404e7daac03" d="M213.816,130.3145c-6.57258,10.73032-15.25665,17.78461-28.06292,19.46012-11.12762,1.45608-23.134.12919-32.44936-6.4446-18.94066-13.36674-18.0417-39.30626-9.15685-58.19269,19.44069-41.32752,75.757-59.83108,116.50922-40.09045a.6592.6592,0,1,0,.60917-1.1667c-37.47223-18.151-85.42224-4.73942-110.389,27.65952C138.92664,87.048,132.13716,108.81533,139.62735,127.69a38.89413,38.89413,0,0,0,15.78116,18.70476c8.55443,5.26348,19.267,5.95317,28.983,4.966,12.0149-1.22053,24.31861-8.62855,30.465-20.43874a.60276.60276,0,0,0-1.04047-.60752Z"/><path class="b31e549b-b8e8-4b13-a70b-d5c92c64540d" d="M192.72908,379.549c3.14521,3.82813,4.80423,10.23976,2.82835,14.9685-.25336.60674.78287,1.0397,1.05991.44744,2.31913-4.96014.71433-12.32834-3.47647-15.82773a.29134.29134,0,0,0-.41179.41179Z"/><path class="b31e549b-b8e8-4b13-a70b-d5c92c64540d" d="M203.48821,377.28069c4.41362,2.11072,6.22092,9.89574,2.91893,13.79927-.477.56345.30419,1.37435.82018.82019,3.9044-4.18821,2.25726-13.60014-3.51378-15.15236-.31175-.0839-.52952.38723-.22533.5329Z"/><path class="b31e549b-b8e8-4b13-a70b-d5c92c64540d" d="M166.82009,381.2834c4.06025,2.66991,4.96093,12.20722,1.5556,15.726a.58024.58024,0,0,0,.82018.82018c3.99507-3.79507,3.263-14.71437-2.081-17.04954a.29184.29184,0,0,0-.29482.50332Z"/><path class="b31e549b-b8e8-4b13-a70b-d5c92c64540d" d="M154.0325,382.19763c4.06031,2.6792,4.01962,12.60036.87953,16.17-.49066.55677.80491.69654,1.32682.15175,3.6833-3.84,3.46214-14.48566-1.91153-16.825a.2918.2918,0,0,0-.29482.50323Z"/><path class="bbc767c9-e65c-4156-859d-eaf4fd22a85a" d="M49.14756,377.17146c4.24841,2.44441,4.75425,11.22514,1.6624,14.77615-.48718.55841.3,1.36844.82019.82018,3.65954-3.85268,3.35033-14.1229-2.258-16.12932-.31686-.11271-.505.37109-.22454.533Z"/><path class="bbc767c9-e65c-4156-859d-eaf4fd22a85a" d="M102.04415,372.68323c5.26686,1.67429,6.83018,9.99143,3.69773,14.24749-.38984.52961.499,1.21505.91085.70331,3.66709-4.54923,2.10386-14.6263-4.45431-15.51338a.29187.29187,0,0,0-.15427.56258Z"/><path class="bbc767c9-e65c-4156-859d-eaf4fd22a85a" d="M113.03459,372.39343c5.29315,1.68445,6.28114,8.78663,4.05867,13.30784-.3271.666.638,1.24723,1.00152.58635,2.69013-4.883,1.55057-13.65437-4.983-14.46692-.33979-.04243-.37623.4779-.07716.57273Z"/><path class="bbc767c9-e65c-4156-859d-eaf4fd22a85a" d="M37.23949,377.73578c5.12795,3.10364,4.62888,11.25472.84474,15.3684-.505.54913.28815,1.35152.82018.82027,4.35185-4.34247,5.09064-14.13739-1.44037-16.72167-.31608-.12459-.49733.36771-.22455.533Z"/><path class="bbc767c9-e65c-4156-859d-eaf4fd22a85a" d="M262.41849,44.80283c-.84474-1.0803-2.7139-3.34173-3.59257-4.40512C245.1588,23.86163,227.37887,9.51584,207.1816,2.12526c-4.68649-1.715-9.88385-2.852-14.79819-1.58406-3.02157.77991-4.25692,5.27276-4.84917,7.80159-2.109,9.01022-1.13117,19.6838.98712,28.60682.1652.69733,1.16672.39018,1.054-.29066-1.40732-8.51714-2.21657-17.63755-.9676-26.21828.59989-4.12548,1.88357-8.52469,6.59713-9.01578,6.41163-.66808,13.33664,2.489,18.95516,5.15674C230.98081,14.56709,245.724,26.72981,257.63378,40.99q1.46025,1.74825,2.86383,3.53755C261.012,45.18242,262.41849,44.80283,262.41849,44.80283Z"/><path class="bbc767c9-e65c-4156-859d-eaf4fd22a85a" d="M167.05056,46.4568a106.3388,106.3388,0,0,1,73.15234-8.93949,81.54543,81.54543,0,0,1,44.81163,27.424c6.85213,8.09052,12.93666,16.96225,16.53183,26.98043a69.7578,69.7578,0,0,1,2.58,36.44693c-4.21362,22.27407-19.42541,38.24288-35.69712,52.84662-6.73942,6.04852-14.28471,10.59775-19.15592,18.39257-4.89065,7.82572-8.05278,16.81563-10.80486,25.57346a146.11926,146.11926,0,0,0-5.1381,20.55569c-2.25891,14.11275-5.58207,27.957-11.17256,41.17074-.36267.85489.89385,1.59967,1.259.73541a163.03292,163.03292,0,0,0,10.52443-36.07333c1.06339-6.2912,2.11662-12.40713,3.76887-18.58736,4.18317-15.64136,9.43476-32.78322,22.58416-43.08519a213.69251,213.69251,0,0,0,23.01287-21.1332c6.28113-6.61153,11.98684-13.51025,16.01835-21.72666a72.50511,72.50511,0,0,0,.943-61.98778c-5.51344-12.06527-14.95245-23.024-24.92524-31.60122a73.99776,73.99776,0,0,0-23.71192-14,105.78358,105.78358,0,0,0-85.19014,5.84132c-.39652.20885-.04573.80405.35078.599Z"/><path class="bbc767c9-e65c-4156-859d-eaf4fd22a85a" d="M271.04495,140.65039c-1.54553,7.29532-10.39394,12.74647-17.59356,11.21586a.94327.94327,0,0,0-.50158,1.81744c7.35466,2.686,18.63742-5.21939,18.94751-12.91808a.43578.43578,0,0,0-.85237-.11522Z"/><path class="a8aaa1a0-3cd9-419d-af28-e404e7daac03" d="M142.70732,394.01928c1.1727-14.55585,3.6723-29.20159,9.58312-42.56452l.00165-.005.00252-.00425c3.06391-6.57258,6.11758-13.38584,10.86506-18.84671,2.381-2.68509,5.1296-5.24654,8.42561-6.53022,1.60826-.60154,3.52992-.61,4.53144.77871a9.07717,9.07717,0,0,1,1.18876,5.01012c.02629.6312.805.671.77958-.00252a9.7394,9.7394,0,0,0-1.30407-5.51257c-1.26242-1.79715-3.78067-1.77685-5.488-1.1151-3.59934,1.37009-6.39627,3.97728-8.88233,6.70732-4.96015,5.61253-8.0638,12.397-11.23694,19.02205l-.00174.00512-.00251.00416c-5.855,13.612-8.20791,28.37889-9.23911,42.9967A.38968.38968,0,0,0,142.70732,394.01928Z"/><path class="a8aaa1a0-3cd9-419d-af28-e404e7daac03" d="M137.532,385.841c-.02707-2.5487.56857-10.06848.8634-12.36305,1.65824-12.88581,6.41076-25.31759,12.52747-36.73838l.00167-.00512.00347-.00425a89.06518,89.06518,0,0,1,13.01628-18.83308c2.63938-2.68006,5.50833-5.44229,9.04-6.62767,3.7307-1.637,7.08943,1.50736,7.84776,5.22452.20756.62956.96848.45413.74816-.21951-.57281-3.823-4.689-7.71813-8.86454-5.854-3.8519,1.27093-6.75643,4.07385-9.495,6.78437a90.13734,90.13734,0,0,0-13.3697,18.945l-.00251.00417-.00339.00512c-6.08114,11.62764-10.76251,24.23389-12.30119,37.318-.26949,2.28858-.67615,8.585-.74392,10.89977C136.77619,384.91162,137.50831,386.3664,137.532,385.841Z"/><path class="a8aaa1a0-3cd9-419d-af28-e404e7daac03" d="M177.3894,380.3912c.03644-1.54718.12709-5.3957.21941-6.94115a129.62179,129.62179,0,0,1,8.39939-38.78975l.00165-.00512.00174-.00425c2.71817-6.864,5.62782-13.82807,10.68037-19.22881a30.06082,30.06082,0,0,1,8.56624-6.78688c2.98-1.85736,7.86138-1.98109,8.54768,2.08773.19574.58209.97012.46349.74982-.21354-.71849-4.6949-6.77248-4.67885-9.68551-2.67581a30.97811,30.97811,0,0,0-8.91538,6.90983c-5.25246,5.51683-8.28505,12.59272-11.08452,19.46689l-.00087.00512-.00251.005a130.54607,130.54607,0,0,0-7.92662,36.57327q-.25418,3.64254-.3042,7.29784C176.63947,378.617,177.39276,380.89192,177.3894,380.3912Z"/><path class="a8aaa1a0-3cd9-419d-af28-e404e7daac03" d="M184.28394,393.37115c-2.991-14.07891.61516-28.22306,4.48817-41.81045v-.00512l.0026-.005a107.92617,107.92617,0,0,1,7.59778-19.79573,38.42021,38.42021,0,0,1,6.021-8.59757c2.2623-2.40892,6.29545-4.29336,8.71028-1.41929.42879.389,1.06425-.07028.56093-.54141-2.80205-3.374-7.63934-1.15908-9.89062,1.321a39.27641,39.27641,0,0,0-6.28365,8.762,109.042,109.042,0,0,0-7.891,19.92865v.00512l-.0026.00424c-3.74512,13.63485-7.24953,28.06707-4.0789,42.29677A.39026.39026,0,0,0,184.28394,393.37115Z"/><path class="bbc767c9-e65c-4156-859d-eaf4fd22a85a" d="M192.652,282.58051c-8.25366,17.54774-13.01381,36.946-16.42,55.96215a169.88079,169.88079,0,0,0-2.90966,26.891,63.07238,63.07238,0,0,0,.538,9.62121c.30758,2.25891,2.04541,4.40937,2.658,6.68355a14.96843,14.96843,0,0,1-1.23457,10.65831c-1.809,3.49435-5.31848,4.27809-8.82047,4.88475-6.598,1.143-13.73566,1.80982-20.00491-.96083-8.95521-3.957-10.00332-15.68032-10.68712-24.2254-1.48106-18.50354,2.88171-37.38746,4.73222-55.70125.522-5.16942.90582-10.3719,1.71412-15.50739.15756-.99727-1.36758-1.42606-1.52515-.42029-1.487,9.4594-2.02846,19.07037-3.28923,28.56535-1.2998,9.79231-2.67842,19.65924-3.09437,29.53884-.34662,8.24175-.26949,16.30563,1.48445,24.41853,1.46669,6.78359,4.19923,12.59949,11.06246,15.188,7.31736,2.75886,17.79433,2.2767,25.10571-.7066,7.10045-2.89784,7.40377-12.44444,5.29063-18.57469-.77446-2.24711-1.91324-3.94847-2.16234-6.37345-.178-1.72939-.23043-3.4698-.26264-5.20586a116.6528,116.6528,0,0,1,.66253-13.33413,243.19742,243.19742,0,0,1,5.35076-31.16654A251.82874,251.82874,0,0,1,193.25106,282.833c.14142-.34315-.44146-.58635-.59911-.25248Z"/><path class="bbc767c9-e65c-4156-859d-eaf4fd22a85a" d="M207.71624,372.14347c2.89272,4.68822,5.53635,10.38465,2.36233,15.59138-1.81155,2.97151-5.49739,4.56953-8.67643,5.538-5.0542,1.53954-10.65745,1.23708-15.81249.48128-2.57837-.37795-6.709-1.42519-8.0401-4.01459-.35591-.69221-1.39726-.08217-1.04222.60839,1.51925,2.95624,5.87189,3.99758,8.75947,4.58055a35.34688,35.34688,0,0,0,17.77822-.88378c3.70189-1.243,7.08526-3.49764,8.86966-7.047,2.56562-5.10426-.43131-11.15148-3.10373-15.49473-.42784-.69394-1.52515-.05761-1.09471.6405Z"/><path class="bbc767c9-e65c-4156-859d-eaf4fd22a85a" d="M226.99337,275.59528c-6.481,14.68808-12.36218,29.19318-15.5218,44.976-1.60991,8.03837-2.63434,16.26832-3.57564,24.41012-1.03206,8.9238-1.74292,17.98581-.30168,26.89609.12624.78374,1.37435.55329,1.26077-.21692-2.48259-16.80382.738-35.23952,4.04929-51.76119,3.0961-15.44987,9.49073-29.26606,14.84739-43.98468.161-.43972-.56857-.74982-.75833-.31938Z"/><path class="bbc767c9-e65c-4156-859d-eaf4fd22a85a" d="M213.84822,285.79686c-7.68593,7.07251-17.757,11.958-27.59256,15.55738-.57621.20849-.30845-1.77763.23383-1.91316,9.51356-3.20369,19.11187-7.50382,26.8444-14.28142C214.22192,284.48351,214.6947,285.04444,213.84822,285.79686Z"/><path class="bbc767c9-e65c-4156-859d-eaf4fd22a85a" d="M112.67955,302.2473c9.31963-.93454,18.418,1.43283,27.55368.8889.5185-.02716.52189,1.72592-.00425,1.69035-9.3119.24406-18.38069-2.40806-27.49685-1.76237C111.74076,303.09213,111.66962,302.36261,112.67955,302.2473Z"/><path class="bbc767c9-e65c-4156-859d-eaf4fd22a85a" d="M168.07835,47.14564C148.175,62.51335,133.847,83.67691,129.39445,108.712c-2.65549,14.92826,1.204,30.02014-.87276,44.89927-.77186,5.529-2.26143,11.62721-5.99811,15.95224-.85237.98712-2.96977,2.808-4.20684,2.8745-.89135.0479-.8956,1.43786,0,1.38962,4.66782-.25127,7.68-5.23979,9.21193-9.13612,5.3262-13.55059,2.46142-28.18531,2.45378-42.30951-.0144-29.63836,15.93116-56.39129,38.7534-74.38475.48128-.38-.17119-1.22693-.6575-.85159Z"/><path class="bbc767c9-e65c-4156-859d-eaf4fd22a85a" d="M184.23058,214.12983c-.49066-4.6746-1.99463-7.53088-7.05809-7.99264-22.291-2.03185-45.73264-14.35256-58.1-33.16282-.522-.79433-1.80477-.05258-1.2777.7473,11.79024,17.90617,31.88418,28.51616,52.56273,32.81793,2.86218.59573,10.26934.19323,11.46322,3.4409a18.87361,18.87361,0,0,1,.877,9.46869c-2.08781,12.91722-19.78809,13.962-29.90326,14.69068-12.88841.92951-25.42005,2.15809-38.09494,4.78558-10.16861,2.10724-18.94326,7.7969-26.30808,14.94733-5.24231,5.08986-9.74234,10.677-12.50969,17.44276-2.79269,6.83009-5.00839,13.85688-8.12141,20.56073a62.88256,62.88256,0,0,1-11.37,17.0767,46.97138,46.97138,0,0,1-15.35583,10.78872c-.11011.04746-4.77968,1.56332-6.67765,3.7621a14.108,14.108,0,0,0-2.27158,4.90592c-1.65223,5.02366-3.13254,10.10753-4.63651,15.177-2.94694,9.93044-7.50712,19.61768-7.24785,30.11669.09317,3.75776.65074,12.36392,2.54956,14.60591,3.25279,3.84081,10.40574,5.77695,15.216,6.22179,6.02778.55833,13.28666-.26949,18.37045-3.78154,7.80124-5.38971,2.09709-12.15464,2.05814-18.29253a58.37378,58.37378,0,0,1,1.63872-8.44348,118.27205,118.27205,0,0,1,4.37552-13.4417c2.95624-7.691,6.69285-15.52015,12.13851-21.77578,5.25836-6.04132,12.874-9.24327,19.8516-12.79436,6.46577-3.291,12.10294-7.34113,16.39543-13.26124.438-.60327-.5618-1.17436-.99475-.58124-9.83977,13.46453-28.14758,15.13206-38.29155,28.24927-6.91069,8.93569-11.93947,20.70484-14.72287,32.22307a87.982,87.982,0,0,0-1.85474,10.1313c.07538,2.4072,1.0159,4.64155,1.5607,6.97335a9.52025,9.52025,0,0,1-5.18044,11.14045c-5.13463,2.5953-12.46725,2.99433-18.046,1.83013-3.82388-.79815-11.56318-3.074-12.31985-7.51814-.9558-5.61-1.9725-12.20462-.73967-17.82825,1.79292-8.179,4.55513-16.242,6.94029-24.2601,1.27005-4.26872,2.55123-8.53493,3.90014-12.78.37448-1.1786.74732-2.36059,1.18375-3.518,1.42933-3.79082,7.45113-5.83282,7.508-5.85737a47.178,47.178,0,0,0,16.66735-12.21226c6.07524-6.84207,10.45415-15.2406,13.93575-24.078,2.35122-5.96679,4.095-12.32584,7.21985-17.95364,5.00169-9.00857,14.3882-17.06143,23.28069-21.96474,11.28613-6.22266,26.136-7.458,38.74064-8.48582,11.12093-.90582,22.9247-.46689,33.322-5.12621C181.69031,228.08241,184.98378,221.30655,184.23058,214.12983Z"/><path class="bbc767c9-e65c-4156-859d-eaf4fd22a85a" d="M123.63106,282.03736A71.93925,71.93925,0,0,1,111.84158,301.994c-.53125.63458.38385,1.55308.91172.91163a71.85922,71.85922,0,0,0,11.82-20.60906c.21431-.5965-.72285-.84135-.94226-.25925Z"/><path class="bbc767c9-e65c-4156-859d-eaf4fd22a85a" d="M152.709,280.7418c-2.72238,4.54836-6.4734,8.35532-9.55171,12.65545-2.36234,3.30025-2.86895,7.67491-2.83677,11.61739a.558.558,0,0,0,1.09133.14742c.988-4.517,1.10572-8.24687,3.85268-12.21564,2.76223-3.98908,6.04722-7.36308,8.268-11.72334a.4772.4772,0,0,0-.82357-.48128Z"/><path class="f81b8e18-4d69-4d7d-9df8-104eee4e93fa" d="M214.18123,129.88068a91.23643,91.23643,0,0,0,13.8069,1.801c3.74848.21605,8.296.4766,11.73184-1.346a67.761,67.761,0,0,0,9.661-6.24929c2.44111-1.88956,6.95642-4.97117,6.95138-8.50742-.00086-.59312-.92109-.92734-1.18884-.322-2.81472,6.3692-10.41173,10.36175-16.29114,13.59511-3.40455,1.87289-8.27064,1.29427-11.99873,1.09341-4.18578-.22541-8.35446-.73716-12.51733-1.21331-.65836-.0754-.79389,1.0121-.155,1.1485Z"/><path class="f81b8e18-4d69-4d7d-9df8-104eee4e93fa" d="M255.70778,116.77917c4.02726,1.1642,8.87131,1.57642,12.60288-.64648,3.89676-2.32078,6.4472-8.3024,7.62069-12.46388.31695-1.12273-1.32854-1.53625-1.71829-.47365-1.39725,3.8061-2.84361,7.52577-5.57027,10.60825-2.89689,3.2757-8.76537,2.83338-12.67228,2.0217a.49507.49507,0,0,0-.26273.95406Z"/><path class="f81b8e18-4d69-4d7d-9df8-104eee4e93fa" d="M212.72046,135.63263c-.10845.06438-.66427-3.81121.73038-6.00739,1.038-2.50254,4.96015-3.80488,4.93473-3.59647.12962-.02533.35591.93038.27114,1.00118a8.13142,8.13142,0,0,0-3.43665,3.55022,11.73536,11.73536,0,0,0-1.47179,4.91138C213.65162,135.61268,212.79334,135.75036,212.72046,135.63263Z"/><path class="f81b8e18-4d69-4d7d-9df8-104eee4e93fa" d="M277.74463,106.88942c.09657-.09744-.37621-2.40981-1.94291-2.91391a11.7678,11.7678,0,0,0-4.273-1.28453c-.09154-.01909.128-.89558.22619-.93376-.06264-.03557,3.102-.74938,5.0568.48085,2.50125,1.01635,2.197,5.0699,1.95472,4.82375A1.92606,1.92606,0,0,1,277.74463,106.88942Z"/><path class="f81b8e18-4d69-4d7d-9df8-104eee4e93fa" d="M266.78386,116.736c-.18984-.12831-.79649,3.77945-.45672,8.85483-.16017,2.55929.78287,5.27406-.92786,8.55228a13.61775,13.61775,0,0,1-7.40031,4.34542c-5.88037,1.12525-11.149-2.87025-15.98625-4.23827a45.04621,45.04621,0,0,0-8.24261-2.78721c-.44736-.07115-.50072-1.05532.08476-1.03371.10083-.14152,3.91967.70071,8.679,2.397,4.68224,1.19561,10.9396,4.82887,15.00329,3.70614a12.53044,12.53044,0,0,0,6.38447-3.5019c1.10235-1.66414.74991-5.07754.88882-7.4246-.10924-5.04058.69394-9.00137.95831-9.00345C266.10086,116.08314,266.88382,116.31654,266.78386,116.736Z"/><path class="f81b8e18-4d69-4d7d-9df8-104eee4e93fa" d="M254.31149,101.26284c1.276,4.77672,2.39955,9.625,2.23852,14.75671.01188.29829-1.73191.11739-1.68445-.14195.43894-4.71313-.36094-9.6567-1.34719-14.41356A.40917.40917,0,0,1,254.31149,101.26284Z"/><path class="bbc767c9-e65c-4156-859d-eaf4fd22a85a" d="M129.31818,122.27231c-5.63968-13.58878-8.07993-28.64838-10.00419-43.15426-1.448-10.91383-2.2013-21.74368-1.19639-32.72518a67.17336,67.17336,0,0,1,3.70362-17.68761A17.03313,17.03313,0,0,1,126.12554,22.02c2.93-2.65542,6.80222-1.31544,9.97963.05423,7.785,3.35578,14.65076,9.04423,20.90048,14.65a73.62023,73.62023,0,0,1,10.39229,11.01118c.53291.72655,1.76071.02247,1.22008-.71338-8.0231-10.9324-20.33453-21.21745-32.79927-26.58521-12.1996-5.2541-16.28021,8.50273-18.01637,17.9342-2.28259,12.40452-1.7437,24.90024-.27365,37.35231,1.86413,15.79043,4.44919,32.28876,10.70664,47.00565.86426,2.0327,1.33955.16225,1.08281-.45664Z"/><path class="bbc767c9-e65c-4156-859d-eaf4fd22a85a" d="M138.47,323.9232c-1.46161,1.19979-2.98339,2.39367-4.58393,3.562-4.39245,3.82987-10.15334,7.14965-12.95288,13.49091-2.09024,6.27263-2.69187,12.902-2.95285,19.5389.10845,7.30721,7.65713,11.60387,6.02691,17.83841-.71936,7.05377-7.6927,7.93243-13.19764,8.5502-5.57106.4084-10.19742.38714-15.84637-1.87767-4.86784-2.92917-6.38023-10.64217-7.22671-16.57417,1.00744-12.85535,1.73106-26.248,4.7009-37.49678.50922-3.09272,2.02-4.17641,5.30494-5.53722a23.23551,23.23551,0,0,0,6.11422-3.48325c3.03675-2.386,5.58882-5.90153,7.6639-8.96623A61.60813,61.60813,0,0,0,117.45,302.48459a5.02637,5.02637,0,0,1-.7914-.11019,85.01618,85.01618,0,0,1-6.07774,10.233,50.35058,50.35058,0,0,1-7.23007,8.45953,22.4813,22.4813,0,0,1-6.049,3.37566c-2.4995.8253-5.52359,3.03-5.95151,6.17606-3.118,11.55051-3.90266,24.58885-4.9991,37.90432a36.89318,36.89318,0,0,0,2.19288,9.766c1.22008,2.90886,2.33856,6.59461,5.79213,8.069,6.20738,2.49274,10.82611,2.441,16.61321,2.047a32.23586,32.23586,0,0,0,8.87981-1.964c3.335-1.14225,4.983-4.71192,5.621-7.80038,1.61757-7.38261-6.39375-12.12159-6.08277-18.10694.21-6.47089.80576-13.15869,2.75622-19.11446,2.38516-5.671,8.13078-9.26365,12.46813-13.04259,1.29045-.95918,2.52753-1.93276,3.72306-2.90964C138.34717,324.95093,138.40051,324.43581,138.47,323.9232Z"/><path class="a8aaa1a0-3cd9-419d-af28-e404e7daac03" d="M204.28636,87.4581c-4.90167-9.63858-15.65568-19.21823-27.257-15.98069-12.297,3.432-11.96579,18.58276-7.93679,27.97639,4.40936,10.27871,15.29647,21.09042,27.51977,16.78943,12.50283-4.39922,12.2631-18.84706,7.674-28.78513-.28043-.60926-1.17774-.07965-.89819.52527,4.77968,10.35246,4.11966,24.411-9.03816,27.86508-11.58957,3.04222-21.19211-8.85483-24.83216-18.13836-3.89927-9.94484-2.36224-24.07329,10.46934-25.78741,10.16013-1.35743,19.228,7.85747,23.401,16.06069C203.69237,88.58205,204.59055,88.055,204.28636,87.4581Z"/><path class="a8aaa1a0-3cd9-419d-af28-e404e7daac03" d="M272.91837,63.54706c-4.65517-7.82745-13.83406-15.98113-23.65093-13.82131-10.66508,2.3462-7.41393,17.29605-4.35436,23.98133,3.6697,8.02024,13.67728,18.35778,23.5823,13.91284,10.48886-4.70723,9.30261-15.54306,4.423-24.07286a.52052.52052,0,0,0-.89819.52527c4.65092,8.13164,5.921,19.2911-4.93472,22.93416-9.47294,3.17905-17.62914-6.56242-21.27419-13.82468-3.79256-7.55892-5.54312-22.26185,6.4878-22.81131,8.25954-.37743,15.85316,7.19875,19.72111,13.70183A.52052.52052,0,0,0,272.91837,63.54706Z"/><path class="b1f04e94-f6df-4bf1-8e0b-4dc82868f096" d="M204.06693,88.171c-4.99659-11.015-17.55714-17.35453-25.81075-11.36154-7.61056,5.52533-6.52939,16.87159-2.24367,26.08988,4.43479,9.10227,15.99044,15.99084,23.845,10.9409C207.9145,108.66071,209.32277,99.02683,204.06693,88.171Z"/><path class="b1f04e94-f6df-4bf1-8e0b-4dc82868f096" d="M270.44419,66.41261c-5.16942-9.15935-15.887-14.6813-23.17216-10.21727-5.87525,5.103-3.51465,15.27737.90322,22.94258,4.54073,7.56689,14.14242,12.06224,20.70562,7.83465C275.61361,82.636,275.83053,75.43811,270.44419,66.41261Z"/><path d="M182.41345,111.26294a14.40261,14.40261,0,0,0,5.61414,3.01245,28.085,28.085,0,0,0,7.46142.66309c3.551-3.10743,3.64893-10.69385-.02734-17.96558-4.04688-8.00781-11.12256-12.58081-15.80237-10.21558-4.68127,2.36622-5.194,10.77491-1.14636,18.78272A26.11386,26.11386,0,0,0,182.41345,111.26294Z"/><path id="a69bd99c-879c-4c11-86c9-e17e475789bb" data-name="SVGID" class="b8bf3667-34e2-4227-9f73-09b523e85d63" d="M205.65984,86.65779c-5.15077-11.35564-19.25512-17.45751-27.7646-11.27937-7.84611,5.69643-6.731,17.39357-2.31314,26.897,4.572,9.38348,16.48523,16.48523,24.583,11.27936C208.47118,108.21457,211.07836,97.849,205.65984,86.65779Z"/><path d="M250.84277,83.4624c3.334,3.65967,8.65967,4.57617,13.53955,4.45264,1.634-3.0791,1.14551-8.53809-1.55371-13.877-3.491-6.90821-9.34423-10.981-13.07153-9.09644-3.72888,1.885-3.92126,9.01148-.42871,15.92065A25.63531,25.63531,0,0,0,250.84277,83.4624Z"/><path id="f24b4b03-b406-4dfd-a633-8cd1ed0c2456" data-name="SVGID" class="b8bf3667-34e2-4227-9f73-09b523e85d63" d="M270.44419,66.41261c-5.16942-9.15935-15.887-14.6813-23.17216-10.21727-5.87525,5.103-3.51465,15.27737.90322,22.94258,4.54073,7.56689,14.14242,12.06224,20.70562,7.83465C275.61361,82.636,275.83053,75.43811,270.44419,66.41261Z"/><path d="M263.17256,89.38184h-.00078c-5.838-.00034-12.13348-3.95558-15.66592-9.84229-4.35939-7.56307-7.164-18.35908-.74565-23.934l.10342-.07627a11.64185,11.64185,0,0,1,6.17684-1.69121c6.59627,0,14.0331,5.01316,18.08413,12.19066,7.27667,12.19282,3.02738,18.47767-1.82092,21.60042a11.12889,11.12889,0,0,1-6.13112,1.75264ZM247.73544,56.82742c-5.63708,4.96613-2.92743,14.90377,1.116,21.92075,3.20282,5.33593,9.09412,9.07131,14.32038,9.07209h.00078a9.5912,9.5912,0,0,0,5.28551-1.50432c6.20912-3.99932,6.65222-10.56131,1.31587-19.503-3.79672-6.72675-10.67349-11.41324-16.73347-11.41324a10.10859,10.10859,0,0,0-5.305,1.42771Z"/><path d="M270.59672,65.57c-4.05519-6.78437-16.26242-17.26516-24.189-9.55293-6.25059,6.0807-1.81407,17.78244,1.61495,23.96354.27114.48935.52449-1.29045.30506-1.68532-4.17554-7.528-7.87742-22.13255,4.65847-22.70025,7.31224-.33083,13.83822,5.86172,17.30541,11.66027.29318.491.53725-1.29808.30506-1.68531Z"/><path d="M193.84409,116.17545h-.00078c-7.18611-.00042-15.05078-5.4363-18.701-12.92571-4.06708-8.7501-5.84306-21.10431,2.51478-27.17191a12.80477,12.80477,0,0,1,7.674-2.48728c7.231,0,14.97877,5.63171,19.278,14.0141,5.577,10.87478,3.67733,22.46676-4.41961,26.96428a12.908,12.908,0,0,1-6.34551,1.60652Zm-8.51291-40.84961a11.10019,11.10019,0,0,0-6.65387,2.156c-7.50458,5.44776-5.75074,16.88435-1.96747,25.02232,3.36724,6.90973,10.57617,11.936,17.13347,11.936h.00078a11.19482,11.19482,0,0,0,5.50329-1.38787c7.25975-4.03281,8.85864-14.63264,3.718-24.6554-4.01034-7.81816-11.13708-13.071-17.73423-13.071Z"/><path d="M205.25656,89.01075c-4.43314-9.16405-15.92517-19.02335-26.675-14.3136-6.80729,2.98217-7.91811,11.16414-7.03522,17.63676a29.80406,29.80406,0,0,0,9.9084,18.3052c.9007.80795,2.90036,1.53747,1.15067-.0322-7.46477-6.69663-11.75889-20.50353-6.19382-29.59774,2.24118-3.66241,6.42349-5.41592,10.56345-5.44733,7.2707-.0551,12.785,5.92019,15.72259,11.99066.30594.63217,2.87407,2.109,2.559,1.45825Z"/><path class="ee75175e-62b9-47b6-9c35-806f1dce33c0" d="M187.88329,90.94264a2.59938,2.59938,0,0,0,2.76223-2.17969,2.45053,2.45053,0,0,0-1.97423-2.87112,2.50672,2.50672,0,0,0-2.76139,2.1784A2.538,2.538,0,0,0,187.88329,90.94264Z"/><path class="ee75175e-62b9-47b6-9c35-806f1dce33c0" d="M254.97827,67.04939a2.53957,2.53957,0,0,1,1.75984-2.8398,2.25914,2.25914,0,0,1,2.61395,1.82431,2.44506,2.44506,0,0,1-1.76158,2.83848A2.18152,2.18152,0,0,1,254.97827,67.04939Z"/><path d="M238.915,113.2417c-20.53955,5.69087-41.72481,10.67861-60.94436,19.43765a.90174.90174,0,1,1-.8863-1.57052c19.92963-8.73909,40.87845-13.26845,61.61887-18.714C240.97146,111.86857,241.179,112.62272,238.915,113.2417Z"/><path d="M241.49,115.9615a598.54412,598.54412,0,0,0-60.86046,29.67611.90343.90343,0,1,1-.93038-1.54415,598.24661,598.24661,0,0,1,61.50278-28.956C243.615,114.41224,243.77942,115.18113,241.49,115.9615Z"/><path d="M241.57474,120.96616a556.3338,556.3338,0,0,0-45.8437,34.557c-.81845.71425-2.014-.72318-1.14806-1.3904a557.33877,557.33877,0,0,1,46.53078-33.90847C242.91429,119.15547,243.32443,119.82147,241.57474,120.96616Z"/><path d="M268.46657,98.18756c15.80656-10.31342,31.91723-20.42312,49.99884-26.72117,1.049-.34142,1.46667,1.36124.45838,1.62726-17.71894,5.85912-34.14656,15.75276-50.00309,25.77466C267.20155,99.97326,266.76686,99.38134,268.46657,98.18756Z"/><path d="M269.89,101.9737c18.39-9.19963,37.37141-17.30368,57.56018-22.09733a.84549.84549,0,1,1,.28728,1.66535c-19.83295,4.40981-39.094,12.27118-57.47038,21.15819C268.28185,103.69206,267.90651,103.06085,269.89,101.9737Z"/><path d="M272.25739,104.61645c18.79508-4.62332,37.46721-8.90011,56.60361-12.17366a.84522.84522,0,0,1,.24745,1.6717c-19.04834,2.96387-37.96957,7.17125-56.79848,11.50565C270.26537,106.08364,270.20611,105.16931,272.25739,104.61645Z"/><path d="M255.76626,88.46509c-1.93779-1.15067-4.05016-1.59039-7.30295-.79521-4.145.93586-8.35871,2.83851-10.48374,5.06141-4.38308,4.58437-.16095,6.14891.93965,6.43487,1.9293.50117,4.084-.56387,5.75413-.6528,2.86045-.1521,5.35918,2.30082,7.95708,3.12777,2.669.84907,3.59083-3.5032,4.09415-5.30243C257.36264,94.05905,258.276,89.95553,255.76626,88.46509Z"/><path class="ee75175e-62b9-47b6-9c35-806f1dce33c0" d="M240.79177,95.05163c-.47616-.71217.99224-1.69928,2.18612-2.25639,1.19717-.55711,4.2085-1.40317,4.62376-.65325.28129.50879-1.992,1.18919-3.18677,1.74587C243.21849,94.44411,241.26794,95.76553,240.79177,95.05163Z"/></svg>